# xmcd
#
# Track frame offsets:
#	150
#	10466
#	23782
#	33378
#	50970
#	66537
#	79389
#	91558
#	103995
#	113848
#	127980
#	142434
#	153358
#	156256
#	172466
#	185924
#	196178
#	207535
#	216048
#	229944
#	240809
#	251425
#
# Disc length: 3526 seconds
#
# Revision: 0
# Processed by: cddbd v1.5PL3 Copyright (c) Steve Scherf et al.
# Submitted via: dBpowerAMP V4.0
#
DISCID=4a0dc416
DTITLE=Sonny James - 200 Years of Country Music/In Prison, In Person
DYEAR=1900
DGENRE=Country
TTITLE0=Introductory Remarks By Sonny
TTITLE1=The Prisoner's Song
TTITLE2=Blue Moon Of Kentucky
TTITLE3=The Great Speckled Bird
TTITLE4=San Antonio Rose
TTITLE5=I'm So Lonesome I Could Cry
TTITLE6=Wildwood Flower (Studio)
TTITLE7=I Don't Care If The Sun Don't Shine
TTITLE8=Waiting For A Train
TTITLE9=Back In The Saddle Again
TTITLE10=Just A Closer Walk With Thee
TTITLE11=Hard To Please
TTITLE12=Introductory Remarks By Biff Collie
TTITLE13=In The Jailhouse Now
TTITLE14=Don't Let Me Die On Prison Land
TTITLE15=Abilene
TTITLE16=Heartaches By The Number
TTITLE17=Wildwood Flower (Live)
TTITLE18=Walkin' Tall
TTITLE19=She's What Lovin' Really Is
TTITLE20=Pistol Packin' Mama
TTITLE21=Amazing Grace
EXTD=
EXTT0=
EXTT1=
EXTT2=
EXTT3=
EXTT4=
EXTT5=
EXTT6=
EXTT7=
EXTT8=
EXTT9=
EXTT10=
EXTT11=
EXTT12=
EXTT13=
EXTT14=
EXTT15=
EXTT16=
EXTT17=
EXTT18=
EXTT19=
EXTT20=
EXTT21=
PLAYORDER=
